<svg
            width="100%"
            viewBox="0 0 220 27.094266279744286"
            class="css-1j8o68f"
          >
            <defs id="SvgjsDefs2608"></defs>
            <g
              id="SvgjsG2609"
              featurekey="nameFeature-0"
              transform="matrix(0.8924072053523437,0,0,0.8924072053523437,-2.8930068044415362,-9.23846853767455)"
              fill="#f5f5f5"
            >
              <path d="M4.3555 27.266 c1.2695 -5.4492 2.5391 -10.918 3.8086 -16.367 l11.719 0 c7.0117 0 11.914 3.6328 8.6914 11.582 c-0.82031 1.9727 -1.9141 3.5547 -3.1641 4.7852 l1.7773 0 c-3.0664 2.9492 -7.3047 3.9453 -12.188 3.9453 l-2.0313 8.7695 l-9.7266 0 l2.9297 -12.715 l-1.8164 0 z M16.211 18.145 c-0.41016 1.9141 -0.87891 3.8672 -1.3086 5.8594 c4.8633 -0.25391 6.6797 -5.8594 1.3086 -5.8594 z M34.5458921875 27.344 l-1.9922 0 l3.8281 -16.484 l20.918 0 l-1.6797 7.4023 l-11.152 0 l-0.58594 2.5 l10.254 0 l-1.5039 6.582 l1.9922 0 l-0.17578 0.78125 l-10.273 0 l-1.0352 4.5703 l11.113 0 l-1.6797 7.3828 l-20.957 0 z M61.220690625 27.266 l-1.7969 0 l3.75 -16.367 l9.8047 0 l-3.7891 16.367 l1.8164 0 l-1.2891 5.332 l10.84 0 l-1.6797 7.3828 l-20.605 0 z M95.9621328125 27.344 l-2.9297 12.734 l-9.8828 0 l2.9297 -12.734 l-1.9922 0 l3.8281 -16.484 l9.8633 0 l-3.7891 16.484 l1.9727 0 z M110.31284375 27.266 l2.2266 0 c-0.35156 4.707 2.8516 8.2422 11.875 2.4414 l2.9297 0 l-1.8359 7.9688 c-9.9023 5.7031 -24.59 3.9844 -22.441 -10.41 l-2.207 0 c0.11719 -0.52734 0.23438 -1.1523 0.39063 -1.8359 c1.9922 -8.7305 8.6523 -15.078 17.93 -15.078 c5.1172 0 8.0664 1.4648 9.8242 2.6758 l-1.8945 8.1641 l-3.1445 0 c-7.0703 -7.6172 -13.184 0.15625 -13.652 6.0742 z M158.6868046875 26.719 l-0.50781 2.4414 c-1.7773 7.8125 -7.4219 11.445 -15.215 11.445 c-7.8516 0 -11.777 -3.75 -10.039 -11.426 l0.56641 -2.4609 l-1.7578 0 l3.6133 -15.957 l9.9023 0 l-3.6328 15.957 l1.7578 0 l-0.50781 2.0508 c-0.39063 1.7383 -0.83984 4.4727 1.7773 4.4727 c2.4219 0 3.3008 -2.4805 3.7695 -4.4727 l0.46875 -2.0508 l-1.8164 0 l3.6328 -15.957 l9.9023 0 l-3.6328 15.957 l1.7188 0 z M165.224596875 27.266 l-1.7969 0 l3.75 -16.367 l9.8047 0 l-3.7891 16.367 l1.8164 0 l-1.2891 5.332 l10.84 0 l-1.6797 7.3828 l-20.605 0 z M215.5520390625 26.719 l-0.50781 2.4414 c-1.7773 7.8125 -7.4219 11.445 -15.215 11.445 c-7.8516 0 -11.777 -3.75 -10.039 -11.426 l0.56641 -2.4609 l-1.7578 0 l3.6133 -15.957 l9.9023 0 l-3.6328 15.957 l1.7578 0 l-0.50781 2.0508 c-0.39063 1.7383 -0.83984 4.4727 1.7773 4.4727 c2.4219 0 3.3008 -2.4805 3.7695 -4.4727 l0.46875 -2.0508 l-1.8164 0 l3.6328 -15.957 l9.9023 0 l-3.6328 15.957 l1.7188 0 z M239.96053125 26.719 l5.1367 13.359 l-11.191 0 l-2.4023 -6.7578 c-1.8164 2.168 -3.8281 4.5117 -5.4883 6.7578 l-10.957 0 l11.387 -13.359 l-1.7578 0 l1.2109 -1.4063 c-2.0313 -4.7461 -3.5938 -9.7852 -5.5664 -14.551 l11.211 0 l2.207 6.25 c1.6016 -2.1094 3.4375 -4.1016 5.0977 -6.25 l10.918 0 l-12.207 14.316 l0.68359 1.6406 l1.7188 0 z"></path>
            </g>
          </svg>